<?xml version="1.0" encoding="utf-8"?>
<!-- Generator: Adobe Illustrator 16.0.0, SVG Export Plug-In . SVG Version: 6.00 Build 0)  -->
<!DOCTYPE svg PUBLIC "-//W3C//DTD SVG 1.1//EN" "http://www.w3.org/Graphics/SVG/1.1/DTD/svg11.dtd">
<svg version="1.1" id="Layer_1" xmlns="http://www.w3.org/2000/svg" xmlns:xlink="http://www.w3.org/1999/xlink" x="0px" y="0px"
	 width="56px" height="37px" viewBox="0 0 56 37" enable-background="new 0 0 56 37" xml:space="preserve">
<g>
	
		<path fill="none" stroke="#FFFFFF" stroke-width="2.9856" stroke-linecap="round" stroke-linejoin="round" stroke-miterlimit="10" d="
		M40.339,7.604c-4.345,0-8.227,1.93-10.823,4.962C28.166,6.246,22.479,1.5,15.661,1.5C7.839,1.5,1.5,7.745,1.5,15.449
		s6.339,13.948,14.161,13.948c4.344,0,8.226-1.93,10.823-4.962C27.833,30.754,33.521,35.5,40.339,35.5
		c7.821,0,14.161-6.244,14.161-13.947C54.5,13.849,48.16,7.604,40.339,7.604z"/>
	
		<path fill="none" stroke="#FFFFFF" stroke-width="1.9904" stroke-linecap="round" stroke-linejoin="round" stroke-miterlimit="10" d="
		M33.093,16.771c1.966,1.92,6.13,6.507,14.454,1.752"/>
	
		<line fill="none" stroke="#FFFFFF" stroke-width="1.9904" stroke-linecap="round" stroke-linejoin="round" stroke-miterlimit="10" x1="12.187" y1="9.196" x2="12.187" y2="12.666"/>
	
		<line fill="none" stroke="#FFFFFF" stroke-width="1.9904" stroke-linecap="round" stroke-linejoin="round" stroke-miterlimit="10" x1="35.375" y1="18.981" x2="35.375" y2="22.451"/>
	
		<line fill="none" stroke="#FFFFFF" stroke-width="1.9904" stroke-linecap="round" stroke-linejoin="round" stroke-miterlimit="10" x1="44.401" y1="20.046" x2="44.401" y2="23.517"/>
	
		<line fill="none" stroke="#FFFFFF" stroke-width="1.9904" stroke-linecap="round" stroke-linejoin="round" stroke-miterlimit="10" x1="20.209" y1="10.286" x2="20.209" y2="13.756"/>
	
		<path fill="none" stroke="#FFFFFF" stroke-width="1.9904" stroke-linecap="round" stroke-linejoin="round" stroke-miterlimit="10" d="
		M23.021,19.556c-1.634,1.941-4.242,3.197-7.182,3.197c-3.956,0-6.813-2.276-7.997-5.433c-0.112-0.297-0.205-0.602-0.277-0.913"/>
</g>
</svg>
