<?xml version="1.0" encoding="utf-8"?>
<!-- Generator: Adobe Illustrator 21.1.0, SVG Export Plug-In . SVG Version: 6.00 Build 0)  -->
<svg version="1.1" id="Capa_1" xmlns="http://www.w3.org/2000/svg" xmlns:xlink="http://www.w3.org/1999/xlink" x="0px" y="0px"
	 viewBox="0 0 12 12" style="enable-background:new 0 0 12 12;" xml:space="preserve">
<style type="text/css">
	.st0{fill:#FFFFFF;}
</style>
<text transform="matrix(1 0 0 1 -73.9141 -80.3335)" style="font-family:'HiraginoSans-W3-83pv-RKSJ-H'; font-size:12px;">♥♡</text>
<path class="st0" d="M2.5,8.1c-1.3-1.8-2-3.4-2-4.7c0-0.8,0.3-1.6,0.7-2.2C1.7,0.4,2.5,0,3.5,0c0.6,0,1,0.1,1.4,0.4
	c0.5,0.3,0.8,0.9,0.9,1.5C5.9,2.3,5.9,2.4,6,2.4c0.1,0,0.1-0.1,0.2-0.5c0.1-0.7,0.5-1.3,1-1.6C7.5,0.1,8.1,0,8.6,0
	c0.6,0,1.2,0.2,1.6,0.5c0.8,0.6,1.3,1.6,1.3,2.9c0,1-0.2,1.9-0.8,2.9C10,7.6,9.1,8.7,7.8,10.1C6.3,11.7,6.3,11.7,6,12
	C3.6,9.6,3.4,9.3,2.5,8.1z"/>
<path d="M-36.3-61.1c-1-1.4-1.5-2.7-1.5-3.7c0-1.2,0.5-2.2,1.4-2.8c0.4-0.3,1-0.4,1.5-0.4c0.6,0,1.2,0.2,1.6,0.5
	c0.3,0.2,0.4,0.4,0.6,0.8c0.4-0.9,1.1-1.3,2.2-1.3c0.9,0,1.5,0.3,2,0.9c0.6,0.6,0.8,1.4,0.8,2.4c0,1.2-0.5,2.6-1.6,4
	c-0.6,0.8-1.1,1.4-2.3,2.6c-0.9,0.9-0.9,0.9-1.2,1.2C-34.3-58.6-35.6-60.1-36.3-61.1z M-30.6-59.9c1.2-1.4,1.8-2.4,2.2-3.5
	c0.2-0.5,0.3-1,0.3-1.4c0-0.9-0.5-1.9-1.1-2.4c-0.4-0.3-0.8-0.4-1.3-0.4c-0.5,0-0.9,0.1-1.1,0.3c-0.4,0.3-0.7,0.7-0.7,1.2
	c0,0.4-0.1,0.5-0.3,0.5c-0.2,0-0.2-0.1-0.3-0.5c0-0.4-0.4-0.9-0.8-1.1c-0.3-0.2-0.7-0.3-1.2-0.3c-0.8,0-1.3,0.2-1.7,0.8
	c-0.4,0.6-0.6,1.2-0.6,1.9c0,1,0.4,2.1,1.3,3.4c0.7,1.1,1.5,1.9,3.2,3.7C-31.4-59.1-30.7-59.8-30.6-59.9z"/>
</svg>
