<?xml version="1.0" encoding="utf-8"?>
<!-- Generator: Adobe Illustrator 21.1.0, SVG Export Plug-In . SVG Version: 6.00 Build 0)  -->
<svg version="1.1" id="Capa_1" xmlns="http://www.w3.org/2000/svg" xmlns:xlink="http://www.w3.org/1999/xlink" x="0px" y="0px"
	 viewBox="0 0 12 12" style="enable-background:new 0 0 12 12;" xml:space="preserve">
<style type="text/css">
	.st0{stroke:#000000;stroke-width:0.5;stroke-miterlimit:10;}
	.st1{fill:#FFFFFF;}
</style>
<path class="st1" d="M10.5,1c-0.6-0.7-1.3-1-2.3-1c-1,0-1.8,0.3-2.3,1C5.9,0.9,5.8,0.7,5.6,0.6C5.1,0.3,4.4,0.1,3.8,0.1
	c-0.6,0-1.2,0.2-1.7,0.5C1.1,1.2,0.5,2.4,0.5,3.6c0,1.2,0.5,2.5,1.5,4c0.7,1,2.1,2.6,3.7,4.2L6,12.1l0.2-0.2
	c0.3-0.3,0.3-0.3,1.2-1.3c1.2-1.2,1.7-1.8,2.4-2.7c1.1-1.5,1.7-2.9,1.7-4.3C11.5,2.6,11.1,1.7,10.5,1z M3.7,1c0.5,0,0.8,0.1,1.1,0.3
	c0.3,0.2,0.7,0.7,0.7,1C5.5,2.6,5.6,3,6,3c0.4,0,0.5-0.4,0.5-0.7c0-0.4,0.3-0.8,0.7-1C7.4,1.1,7.8,1,8.2,1c0.6,0,0.9,0.1,1.2,0.3
	c0.6,0.4,1,1.4,1,2.3c0,0.4-0.1,0.9-0.3,1.4C9.8,6.1,9.1,7.2,7.9,8.6c-0.1,0.1-0.7,0.8-2,2.1C4.3,8.9,3.5,8.1,2.8,7
	C1.9,5.7,1.5,4.6,1.5,3.6c0-0.7,0.2-1.3,0.6-1.9C2.6,1.2,3,1,3.7,1z"/>
</svg>
