<?xml version="1.0" encoding="utf-8"?>
<!-- Generator: Adobe Illustrator 21.1.0, SVG Export Plug-In . SVG Version: 6.00 Build 0)  -->
<svg version="1.1" id="Capa_1" xmlns="http://www.w3.org/2000/svg" xmlns:xlink="http://www.w3.org/1999/xlink" x="0px" y="0px"
	 viewBox="0 0 15.5 12" style="enable-background:new 0 0 15.5 12;" xml:space="preserve">
<style type="text/css">
	.st0{fill:#FFFFFF;}
</style>
<g>
	<path class="st0" d="M13,1c-0.7-0.6-1.6-1-2.7-1c-0.3,0-0.7,0.1-1,0.2C8.9,0.3,8.6,0.4,8.3,0.6C8.1,0.8,7.8,1,7.6,1.2
		C7.4,1.3,7.2,1.5,7,1.7C6.8,1.5,6.6,1.3,6.4,1.2C6.2,1,6,0.8,5.7,0.6S5.1,0.3,4.7,0.2C4.4,0.1,4.1,0,3.7,0C2.6,0,1.7,0.3,1,1
		S0,2.5,0,3.7C0,4,0.1,4.4,0.2,4.7s0.3,0.7,0.4,0.9s0.3,0.5,0.5,0.8C1.3,6.7,1.5,6.9,1.6,7C1.7,7,1.7,7.1,1.8,7.2l4.9,4.7
		C6.8,12,6.9,12,7,12c0.1,0,0.2,0,0.3-0.1l4.9-4.7C13.4,6,14,4.8,14,3.7C14,2.5,13.7,1.6,13,1z M11.5,6.4L7,10.8L2.5,6.4
		C1.5,5.5,1,4.5,1,3.7c0-0.4,0.1-0.8,0.2-1.1C1.3,2.2,1.4,2,1.6,1.8S2,1.4,2.2,1.3C2.5,1.2,2.7,1.1,3,1.1C3.2,1,3.5,1,3.7,1
		s0.6,0.1,0.9,0.2s0.6,0.3,0.9,0.5C5.7,1.9,6,2.1,6.2,2.3s0.3,0.3,0.5,0.5C6.7,2.9,6.8,2.9,7,2.9c0.2,0,0.3-0.1,0.4-0.2
		c0.1-0.1,0.3-0.3,0.5-0.5C8,2.1,8.3,1.9,8.5,1.7c0.3-0.2,0.6-0.4,0.9-0.5C9.7,1.1,10,1,10.3,1c0.3,0,0.5,0,0.8,0.1
		c0.2,0,0.5,0.1,0.7,0.2c0.2,0.1,0.5,0.3,0.6,0.5c0.2,0.2,0.3,0.4,0.4,0.8S13,3.2,13,3.7C13,4.5,12.5,5.5,11.5,6.4z"/>
</g>
</svg>
